# xmcd
#
# Track frame offsets: 
#        150
#        17100
#        31725
#        44900
#        53325
#        73850
#        88650
#        99525
#        121025
#        134925
#        150000
#        166975
#        182400
#        198900
#        210650
#        225225
#        241425
#        264875
#
# Disc length: 3630 seconds
#
# Revision: 0
# Processed by: cddbd v1.5PL3 Copyright (c) Steve Scherf et al.
# Submitted via: ExactAudioCopy v0.95a5
#
DISCID=e40e2c12
DTITLE=Wolfgang Bernreuther, Golly and Rudi Bayer - I Wonder Why
DYEAR=1900
DGENRE=Blues
TTITLE0=Love Me Now
TTITLE1=Crossroads
TTITLE2=I Bid Farewell, My Love
TTITLE3=Sixty Years
TTITLE4=Fire And Rain
TTITLE5=The Sky Is Crying
TTITLE6=Stalker Blues
TTITLE7=Black Night
TTITLE8=I Don't Mind
TTITLE9=I Can't Be Satisfied
TTITLE10=Blues And Trouble
TTITLE11=I Wonder Why
TTITLE12=Litte Red Rooster
TTITLE13=Alabama Train
TTITLE14=Rock Me
TTITLE15=Back Home Again
TTITLE16=Had Me A Girl
TTITLE17=Rollin' And Tumblin'
EXTD=
EXTT0=
EXTT1=
EXTT2=
EXTT3=
EXTT4=
EXTT5=
EXTT6=
EXTT7=
EXTT8=
EXTT9=
EXTT10=
EXTT11=
EXTT12=
EXTT13=
EXTT14=
EXTT15=
EXTT16=
EXTT17=
PLAYORDER=
